.
..............................Site Info...........................

 -   http://www.scenetime.com  *_*   

Good news ! SceneTime will open sign up on Easter day for one day . Its a good chance to sign in on Easter day .

Scenetime .Always on time . friendly online private torrent community ..

     We care to share . Join us on  http://www.scenetime.com 

    Be the first to get new release at  http://www.scenetime.com

        Seed back for speed


...................................NFO:.................................................[IMG]http://image.leechfrom.me/images/834Untitled_1gg_1_1_.gif[/IMG]

 
TITLE: 

Mission Impossible Ghost Protocol 2011 AC3 XViD - INSPiRAL

IMDB: 
 
http://www.imdb.com/title/tt1229238/


SOURCES:

VIDEO -  1080p SECTOR7  THANKS
AUDIO -  1080p SECTOR7  THANKS
SUBS  - ENG when needed.

STATS:

Video
ID                                       : 0
Format                                   : MPEG-4 Visual
Format profile                           : Advanced Simple@L5
Format settings, BVOP                    : 2
Format settings, QPel                    : No
Format settings, GMC                     : No warppoints
Format settings, Matrix                  : Default (MPEG)
Muxing mode                              : Packed bitstream
Codec ID                                 : XVID
Codec ID/Hint                            : XviD
Duration                                 : 2h 12mn
Bit rate                                 : 1 649 Kbps
Width                                    : 720 pixels
Height                                   : 304 pixels
Display aspect ratio                     : 2.35:1
Frame rate                               : 23.976 fps
Color space                              : YUV
Chroma subsampling                       : 4:2:0
Bit depth                                : 8 bits
Scan type                                : Progressive
Compression mode                         : Lossy
Bits/(Pixel*Frame)                       : 0.314
Stream size                              : 1.53 GiB (72%)
Writing library                          : XviD 64

Audio
ID                                       : 1
Format                                   : AC-3
Format/Info                              : Audio Coding 3
Mode extension                           : CM (complete main)
Codec ID                                 : 2000
Duration                                 : 2h 12mn
Bit rate mode                            : Constant
Bit rate                                 : 640 Kbps
Channel(s)                               : 6 channels
Channel positions                        : Front: L C R, Side: L R, LFE
Sampling rate                            : 48.0 KHz
Bit depth                                : 16 bits
Compression mode                         : Lossy
Stream size                              : 609 MiB (28%)
Alignment                                : Aligned on interleaves
Interleave, duration                     : 42 ms (1.00 video frame)
Interleave, preload duration             : 512 ms


NOTES:

Straight forward rip from the 1080p and then just muxed the AC3 audio back too our encode.
Enjoy folks :)


SCREENS:

[IMG]http://i.imgur.com/tKdy1.png[/IMG]
[IMG]http://i.imgur.com/4m7EE.png[/IMG]
[IMG]http://i.imgur.com/ZXV9U.png[/IMG]
[IMG]http://i.imgur.com/8iix6.png[/IMG]

GREETZ: 

Past,Present and Future

[IMG]http://image.leechfrom.me/images/834Untitled_1gg_1_1_.gif[/IMG]